<?xml version="1.0" encoding="utf-8"?>
<!-- Generator: Adobe Illustrator 24.0.0, SVG Export Plug-In . SVG Version: 6.00 Build 0)  -->
<svg version="1.1" id="Capa_1" xmlns="http://www.w3.org/2000/svg" xmlns:xlink="http://www.w3.org/1999/xlink" x="0px" y="0px"
	 viewBox="0 0 500 333" style="enable-background:new 0 0 500 333;" xml:space="preserve">
<style type="text/css">
	.st0{fill:#FF7F00;}
	.st1{fill:#004E75;}
	.st2{fill:url(#SVGID_1_);}
	.st3{fill:url(#SVGID_2_);}
	.st4{fill:url(#SVGID_3_);}
</style>
<g>
	<path class="st0" d="M59.86,47.87h40.37v174.44H59.86V47.87z"/>
	<path class="st1" d="M276.67,189.92v32.4H141.6V47.87h131.83v32.4h-91.71v37.88h80.99v31.4h-80.99v40.37H276.67z"/>
	<path class="st1" d="M326.13,219.7c-12.88-3.74-23.22-8.6-31.03-14.58l13.71-30.4c7.48,5.48,16.36,9.89,26.67,13.21
		c10.3,3.33,20.6,4.98,30.9,4.98c11.46,0,19.94-1.7,25.42-5.11c5.48-3.4,8.22-7.93,8.22-13.58c0-4.15-1.62-7.6-4.86-10.34
		c-3.24-2.74-7.39-4.94-12.46-6.6c-5.07-1.66-11.92-3.49-20.56-5.48c-13.29-3.15-24.17-6.31-32.65-9.47
		c-8.47-3.15-15.74-8.22-21.8-15.2c-6.07-6.98-9.1-16.28-9.1-27.91c0-10.13,2.74-19.31,8.22-27.54c5.48-8.22,13.75-14.74,24.8-19.56
		c11.05-4.82,24.55-7.23,40.5-7.23c11.13,0,22.01,1.33,32.65,3.99c10.63,2.66,19.94,6.48,27.91,11.46L420.2,90.98
		c-16.12-9.14-32.23-13.71-48.35-13.71c-11.3,0-19.65,1.83-25.05,5.48c-5.4,3.66-8.1,8.47-8.1,14.45c0,5.98,3.11,10.43,9.34,13.33
		c6.23,2.91,15.74,5.78,28.53,8.6c13.29,3.16,24.17,6.32,32.65,9.47c8.47,3.16,15.74,8.14,21.8,14.95c6.06,6.81,9.1,16.04,9.1,27.66
		c0,9.97-2.78,19.06-8.35,27.29c-5.57,8.22-13.92,14.74-25.04,19.56c-11.13,4.82-24.67,7.23-40.62,7.23
		C352.33,225.3,339,223.43,326.13,219.7z"/>
	<g>
		<path class="st1" d="M146.41,276.68c-2.1-0.66-3.74-1.5-4.93-2.5l1.72-3.01c1.18,0.93,2.67,1.7,4.47,2.29
			c1.79,0.59,3.66,0.89,5.6,0.89c2.58,0,4.5-0.4,5.73-1.21s1.86-1.95,1.86-3.42c0-1.04-0.34-1.86-1.02-2.45
			c-0.68-0.59-1.54-1.04-2.58-1.35c-1.04-0.3-2.42-0.6-4.15-0.89c-2.3-0.43-4.15-0.87-5.55-1.32c-1.4-0.45-2.59-1.21-3.58-2.29
			c-0.99-1.08-1.48-2.57-1.48-4.47c0-2.37,0.99-4.31,2.96-5.82c1.97-1.51,4.72-2.26,8.24-2.26c1.83,0,3.66,0.24,5.49,0.73
			s3.34,1.12,4.52,1.91l-1.67,3.07c-2.33-1.62-5.11-2.42-8.35-2.42c-2.44,0-4.28,0.43-5.52,1.29s-1.86,1.99-1.86,3.39
			c0,1.08,0.35,1.94,1.05,2.58c0.7,0.65,1.57,1.12,2.61,1.43c1.04,0.3,2.48,0.62,4.31,0.94c2.26,0.43,4.07,0.86,5.44,1.29
			c1.36,0.43,2.53,1.17,3.5,2.21c0.97,1.04,1.45,2.48,1.45,4.31c0,2.48-1.03,4.44-3.1,5.9c-2.06,1.45-4.93,2.18-8.59,2.18
			C150.71,277.67,148.51,277.34,146.41,276.68z"/>
		<path class="st0" d="M200.39,249.08l-14.16,31.71c-1.15,2.66-2.48,4.54-3.98,5.65c-1.51,1.11-3.32,1.67-5.44,1.67
			c-1.36,0-2.64-0.21-3.82-0.65c-1.18-0.43-2.21-1.08-3.07-1.94l1.78-2.85c1.44,1.44,3.16,2.15,5.17,2.15c1.29,0,2.4-0.36,3.31-1.08
			c0.92-0.72,1.77-1.94,2.56-3.66l1.24-2.75l-12.65-28.27h3.98l10.66,24.07l10.66-24.07H200.39z"/>
		<path class="st1" d="M211.83,276.68c-2.1-0.66-3.74-1.5-4.93-2.5l1.72-3.01c1.18,0.93,2.67,1.7,4.47,2.29
			c1.79,0.59,3.66,0.89,5.6,0.89c2.58,0,4.5-0.4,5.73-1.21s1.86-1.95,1.86-3.42c0-1.04-0.34-1.86-1.02-2.45
			c-0.68-0.59-1.54-1.04-2.58-1.35c-1.04-0.3-2.42-0.6-4.15-0.89c-2.3-0.43-4.15-0.87-5.55-1.32c-1.4-0.45-2.59-1.21-3.58-2.29
			c-0.99-1.08-1.48-2.57-1.48-4.47c0-2.37,0.99-4.31,2.96-5.82c1.97-1.51,4.72-2.26,8.24-2.26c1.83,0,3.66,0.24,5.49,0.73
			s3.34,1.12,4.52,1.91l-1.67,3.07c-2.33-1.62-5.11-2.42-8.35-2.42c-2.44,0-4.28,0.43-5.52,1.29s-1.86,1.99-1.86,3.39
			c0,1.08,0.35,1.94,1.05,2.58c0.7,0.65,1.57,1.12,2.61,1.43c1.04,0.3,2.48,0.62,4.31,0.94c2.26,0.43,4.07,0.86,5.44,1.29
			c1.36,0.43,2.53,1.17,3.5,2.21c0.97,1.04,1.45,2.48,1.45,4.31c0,2.48-1.03,4.44-3.1,5.9c-2.06,1.45-4.93,2.18-8.59,2.18
			C216.13,277.67,213.93,277.34,211.83,276.68z"/>
		<path class="st1" d="M257.46,275.68c-0.72,0.65-1.61,1.14-2.67,1.48c-1.06,0.34-2.16,0.51-3.31,0.51c-2.66,0-4.7-0.72-6.14-2.15
			c-1.44-1.43-2.15-3.46-2.15-6.08v-17.12h-5.06v-3.23h5.06v-6.19h3.82v6.19h8.61v3.23h-8.61v16.91c0,1.69,0.42,2.97,1.27,3.85
			c0.84,0.88,2.05,1.32,3.63,1.32c0.79,0,1.55-0.13,2.29-0.38s1.37-0.61,1.91-1.08L257.46,275.68z"/>
		<path class="st1" d="M293.42,264.43h-23.69c0.21,2.94,1.35,5.32,3.39,7.13c2.05,1.81,4.63,2.72,7.75,2.72
			c1.76,0,3.37-0.31,4.85-0.94c1.47-0.63,2.75-1.55,3.82-2.77l2.15,2.48c-1.26,1.51-2.83,2.66-4.71,3.45
			c-1.88,0.79-3.96,1.18-6.22,1.18c-2.91,0-5.48-0.62-7.73-1.86s-3.99-2.95-5.25-5.14c-1.26-2.19-1.88-4.67-1.88-7.43
			c0-2.76,0.6-5.24,1.8-7.43c1.2-2.19,2.85-3.89,4.95-5.12c2.1-1.22,4.46-1.83,7.08-1.83s4.97,0.61,7.05,1.83
			c2.08,1.22,3.71,2.92,4.9,5.09c1.18,2.17,1.78,4.66,1.78,7.46L293.42,264.43z M272.88,254.76c-1.85,1.74-2.9,4.01-3.15,6.81h20.08
			c-0.25-2.8-1.3-5.07-3.15-6.81c-1.85-1.74-4.16-2.61-6.92-2.61C277.02,252.15,274.73,253.02,272.88,254.76z"/>
		<path class="st1" d="M350.36,251.94c2.03,2.05,3.04,5.06,3.04,9.05v16.42h-3.82v-16.04c0-2.94-0.71-5.19-2.13-6.73
			c-1.42-1.54-3.42-2.32-6-2.32c-2.94,0-5.26,0.91-6.95,2.72c-1.69,1.81-2.53,4.32-2.53,7.51v14.86h-3.82v-16.04
			c0-2.94-0.71-5.19-2.13-6.73c-1.42-1.54-3.44-2.32-6.06-2.32c-2.91,0-5.21,0.91-6.92,2.72c-1.71,1.81-2.56,4.32-2.56,7.51v14.86
			h-3.82v-28.32h3.66v5.17c1-1.72,2.4-3.05,4.2-3.98c1.79-0.93,3.86-1.4,6.19-1.4c2.37,0,4.42,0.5,6.16,1.51
			c1.74,1.01,3.04,2.5,3.9,4.47c1.04-1.87,2.54-3.33,4.5-4.39c1.96-1.06,4.19-1.59,6.7-1.59
			C345.54,248.87,348.33,249.89,350.36,251.94z"/>
		<path class="st1" d="M370.17,276.68c-2.1-0.66-3.74-1.5-4.93-2.5l1.72-3.01c1.18,0.93,2.67,1.7,4.47,2.29
			c1.79,0.59,3.66,0.89,5.6,0.89c2.58,0,4.5-0.4,5.73-1.21s1.86-1.95,1.86-3.42c0-1.04-0.34-1.86-1.02-2.45
			c-0.68-0.59-1.54-1.04-2.58-1.35c-1.04-0.3-2.42-0.6-4.15-0.89c-2.3-0.43-4.15-0.87-5.55-1.32c-1.4-0.45-2.59-1.21-3.58-2.29
			c-0.99-1.08-1.48-2.57-1.48-4.47c0-2.37,0.99-4.31,2.96-5.82c1.97-1.51,4.72-2.26,8.24-2.26c1.83,0,3.66,0.24,5.49,0.73
			c1.83,0.48,3.34,1.12,4.52,1.91l-1.67,3.07c-2.33-1.62-5.11-2.42-8.34-2.42c-2.44,0-4.28,0.43-5.52,1.29
			c-1.24,0.86-1.86,1.99-1.86,3.39c0,1.08,0.35,1.94,1.05,2.58c0.7,0.65,1.57,1.12,2.61,1.43s2.48,0.62,4.31,0.94
			c2.26,0.43,4.07,0.86,5.44,1.29s2.53,1.17,3.5,2.21c0.97,1.04,1.45,2.48,1.45,4.31c0,2.48-1.03,4.44-3.1,5.9
			c-2.06,1.45-4.93,2.18-8.59,2.18C374.47,277.67,372.27,277.34,370.17,276.68z"/>
	</g>
	<g>
		<polygon class="st1" points="397.37,239.34 435.54,259.09 397.37,285.55 406.81,264.58 		"/>
		<linearGradient id="SVGID_1_" gradientUnits="userSpaceOnUse" x1="393.5038" y1="278.8575" x2="433.5905" y2="255.7134">
			<stop  offset="0" style="stop-color:#FF7F00"/>
			<stop  offset="0.3111" style="stop-color:#FD8A00"/>
			<stop  offset="0.8559" style="stop-color:#F8A700"/>
			<stop  offset="1" style="stop-color:#F6B000"/>
		</linearGradient>
		<polygon class="st2" points="435.54,259.09 397.37,285.55 423.32,252.72 		"/>
		<linearGradient id="SVGID_2_" gradientUnits="userSpaceOnUse" x1="417.676" y1="261.7566" x2="405.4645" y2="235.5689">
			<stop  offset="0" style="stop-color:#FF7F00"/>
			<stop  offset="0.3111" style="stop-color:#FD8A00"/>
			<stop  offset="0.8559" style="stop-color:#F8A700"/>
			<stop  offset="1" style="stop-color:#F6B000"/>
		</linearGradient>
		<polygon class="st3" points="415.3,262.86 397.37,239.34 423.32,252.72 		"/>
		<linearGradient id="SVGID_3_" gradientUnits="userSpaceOnUse" x1="397.3676" y1="270.9991" x2="415.3008" y2="270.9991">
			<stop  offset="0" style="stop-color:#004E75"/>
			<stop  offset="0.2644" style="stop-color:#004A72"/>
			<stop  offset="0.5007" style="stop-color:#014067"/>
			<stop  offset="0.7262" style="stop-color:#022D56"/>
			<stop  offset="0.9439" style="stop-color:#04143E"/>
			<stop  offset="1" style="stop-color:#040C37"/>
		</linearGradient>
		<polygon class="st4" points="415.3,262.86 397.37,285.55 410.49,256.45 		"/>
	</g>
</g>
</svg>
