<?xml version="1.0" encoding="utf-8"?>
<!-- Generator: Adobe Illustrator 28.0.0, SVG Export Plug-In . SVG Version: 6.00 Build 0)  -->
<svg version="1.1" id="Capa_1" xmlns="http://www.w3.org/2000/svg" xmlns:xlink="http://www.w3.org/1999/xlink" x="0px" y="0px"
	 viewBox="0 0 109.5 70.1" style="enable-background:new 0 0 109.5 70.1;" xml:space="preserve">
<style type="text/css">
	.st0{fill:#FFFFFF;}
	.st1{fill:url(#SVGID_1_);}
	.st2{fill:url(#SVGID_00000170251251967603009890000010313036395746384021_);}
	.st3{fill:url(#SVGID_00000029043993447284061030000006811999695307115423_);}
</style>
<g transform="translate(-90.776 -47.339)">
	<path class="st0" d="M90.8,48.2h11.6v50.2H90.8V48.2z"/>
	<path class="st0" d="M153.2,89.1v9.3h-38.9V48.2h38v9.3h-26.4v10.9h23.3v9h-23.3v11.6H153.2z"/>
	<path class="st0" d="M167.5,97.7c-3.2-0.8-6.2-2.3-8.9-4.2l3.9-8.8c2.3,1.7,4.9,3,7.7,3.8c2.9,0.9,5.9,1.4,8.9,1.4
		c3.3,0,5.7-0.5,7.3-1.5c1.5-0.8,2.4-2.3,2.4-3.9c0-1.2-0.5-2.3-1.4-3c-1.1-0.9-2.3-1.5-3.6-1.9c-1.5-0.5-3.4-1-5.9-1.6
		c-3.2-0.7-6.3-1.6-9.4-2.7c-2.4-0.9-4.6-2.4-6.3-4.4c-1.8-2.3-2.8-5.1-2.6-8c0-2.8,0.8-5.6,2.4-7.9c1.8-2.5,4.3-4.5,7.1-5.6
		c3.7-1.5,7.7-2.2,11.7-2.1c3.2,0,6.3,0.4,9.4,1.1c2.8,0.7,5.5,1.8,8,3.3l-3.6,8.8c-4.2-2.5-9-3.9-13.9-3.9c-3.3,0-5.7,0.5-7.2,1.6
		c-1.5,0.9-2.3,2.5-2.3,4.2c0,1.7,1.1,3.3,2.7,3.8c2.6,1.1,5.4,1.9,8.2,2.5c3.2,0.7,6.3,1.6,9.4,2.7c2.4,0.9,4.6,2.4,6.3,4.3
		c1.8,2.2,2.8,5.1,2.6,8c0,2.8-0.8,5.5-2.4,7.9c-1.8,2.5-4.3,4.5-7.2,5.6c-3.7,1.5-7.7,2.2-11.7,2.1
		C175.1,99.3,171.2,98.8,167.5,97.7z"/>
	<g transform="translate(114.285 104.368)">
		<path class="st0" d="M1.4,9.7C0.9,9.6,0.4,9.3,0,9l0.5-0.9c0.4,0.3,0.8,0.5,1.3,0.7C2.3,9,2.9,9.1,3.4,9.1C4,9.1,4.5,9,5.1,8.7
			c0.3-0.2,0.5-0.6,0.5-1c0-0.3-0.1-0.5-0.3-0.7C5.1,6.8,4.8,6.7,4.5,6.6C4.2,6.5,3.8,6.4,3.4,6.4C2.8,6.3,2.3,6.2,1.8,6
			C1.4,5.9,1,5.6,0.7,5.3C0.4,5,0.3,4.5,0.3,4c0-0.7,0.3-1.3,0.9-1.7c0.7-0.5,1.5-0.7,2.4-0.7c0.5,0,1.1,0.1,1.6,0.2
			C5.6,2,6,2.2,6.4,2.5L5.9,3.4C5.2,2.9,4.4,2.6,3.5,2.7C3,2.6,2.4,2.8,1.9,3C1.6,3.2,1.4,3.6,1.4,4c0,0.3,0.1,0.6,0.3,0.7
			c0.2,0.2,0.5,0.3,0.8,0.4c0.4,0.1,0.8,0.2,1.2,0.3c0.5,0.1,1.1,0.2,1.6,0.4c0.4,0.1,0.7,0.3,1,0.6c0.3,0.3,0.4,0.8,0.4,1.2
			c0,0.7-0.3,1.3-0.9,1.7C5,9.8,4.2,10.1,3.3,10C2.7,10,2,9.9,1.4,9.7z"/>
		<path class="st0" d="M17,1.8l-4.1,9.1c-0.2,0.6-0.6,1.2-1.1,1.6c-0.5,0.3-1,0.5-1.6,0.5c-0.4,0-0.7-0.1-1.1-0.2
			c-0.3-0.1-0.6-0.3-0.9-0.6l0.5-0.8c0.4,0.4,0.9,0.6,1.5,0.6c0.3,0,0.7-0.1,1-0.3c0.3-0.3,0.6-0.7,0.7-1.1l0.4-0.8L8.6,1.8h1.1
			l3.1,6.9l3.1-6.9L17,1.8z"/>
		<path class="st0" d="M20.3,9.7c-0.5-0.1-1-0.4-1.4-0.7l0.5-0.9c0.4,0.3,0.8,0.5,1.3,0.7c0.5,0.2,1.1,0.3,1.6,0.3
			c0.6,0,1.1-0.1,1.7-0.3c0.3-0.2,0.5-0.6,0.5-1c0-0.3-0.1-0.5-0.3-0.7c-0.2-0.2-0.5-0.3-0.7-0.4c-0.4-0.1-0.8-0.2-1.2-0.3
			c-0.5-0.1-1.1-0.2-1.6-0.4c-0.4-0.1-0.8-0.4-1-0.7C19.3,5,19.1,4.5,19.1,4c0-0.7,0.3-1.3,0.9-1.7c0.7-0.5,1.5-0.7,2.4-0.7
			c0.5,0,1.1,0.1,1.6,0.2c0.5,0.1,0.9,0.3,1.3,0.6l-0.5,0.9c-0.7-0.5-1.5-0.7-2.4-0.7c-0.6,0-1.1,0.1-1.6,0.4
			c-0.3,0.2-0.5,0.6-0.5,1c0,0.3,0.1,0.6,0.3,0.7c0.2,0.2,0.5,0.3,0.8,0.4c0.4,0.1,0.8,0.2,1.2,0.3c0.5,0.1,1.1,0.2,1.6,0.4
			c0.4,0.1,0.7,0.3,1,0.6c0.3,0.3,0.4,0.8,0.4,1.2c0,0.7-0.3,1.3-0.9,1.7c-0.7,0.5-1.6,0.7-2.5,0.6C21.5,10,20.9,9.9,20.3,9.7z"/>
		<path class="st0" d="M33.4,9.4c-0.2,0.2-0.5,0.3-0.8,0.4C32.3,10,32,10,31.7,10c-1.2,0.1-2.3-0.7-2.4-1.9c0-0.2,0-0.3,0-0.5V2.7
			h-1.5V1.8h1.5V0h1.1v1.8h2.5v0.9h-2.5v4.9c0,0.4,0.1,0.8,0.4,1.1c0.3,0.3,0.7,0.4,1,0.4c0.2,0,0.4,0,0.7-0.1
			c0.2-0.1,0.4-0.2,0.6-0.3L33.4,9.4z"/>
		<path class="st0" d="M43.8,6.2h-6.8c0,0.8,0.4,1.5,1,2.1c0.6,0.5,1.4,0.8,2.2,0.8c0.5,0,1-0.1,1.4-0.3C42,8.6,42.3,8.3,42.6,8
			l0.6,0.7c-0.4,0.4-0.8,0.8-1.4,1c-0.6,0.2-1.2,0.3-1.8,0.3c-0.8,0-1.5-0.2-2.2-0.5c-0.6-0.3-1.2-0.9-1.5-1.5
			c-0.4-0.7-0.6-1.4-0.5-2.1c0-0.7,0.2-1.5,0.5-2.1c0.3-0.6,0.8-1.1,1.4-1.5c0.6-0.4,1.3-0.5,2-0.5c0.7,0,1.4,0.2,2,0.5
			c0.6,0.3,1.1,0.9,1.4,1.5c0.3,0.7,0.5,1.4,0.5,2.1L43.8,6.2z M37.8,3.4c-0.5,0.5-0.9,1.2-0.9,2h5.8c0-0.7-0.4-1.4-0.9-2
			C40.7,2.4,39,2.4,37.8,3.4z"/>
		<path class="st0" d="M60.2,2.6c0.6,0.7,0.9,1.7,0.9,2.6v4.7h-1.1V5.3c0-0.7-0.2-1.4-0.6-1.9c-0.5-0.5-1.1-0.7-1.7-0.7
			c-0.7,0-1.5,0.2-2,0.8c-0.5,0.6-0.8,1.4-0.7,2.2v4.3h-1.1V5.3c0-0.7-0.2-1.4-0.6-1.9c-0.5-0.5-1.1-0.7-1.7-0.7
			c-0.7,0-1.5,0.2-2,0.8c-0.5,0.6-0.8,1.4-0.7,2.2v4.3h-1.1V1.8h1.1v1.5c0.3-0.5,0.7-0.9,1.2-1.1c0.6-0.3,1.2-0.4,1.8-0.4
			c0.6,0,1.2,0.1,1.8,0.4c0.5,0.3,0.9,0.7,1.1,1.3c0.3-0.5,0.8-1,1.3-1.3c0.6-0.3,1.3-0.5,1.9-0.5C58.6,1.7,59.5,2,60.2,2.6z"/>
		<path class="st0" d="M65.9,9.7c-0.5-0.1-1-0.4-1.4-0.7l0.5-0.9c0.4,0.3,0.8,0.5,1.3,0.7c0.5,0.2,1.1,0.3,1.6,0.3
			c0.6,0,1.1-0.1,1.7-0.3c0.3-0.2,0.5-0.6,0.5-1c0-0.3-0.1-0.5-0.3-0.7c-0.2-0.2-0.5-0.3-0.7-0.4c-0.4-0.1-0.8-0.2-1.2-0.3
			c-0.5-0.1-1.1-0.2-1.6-0.4c-0.4-0.1-0.8-0.4-1-0.7C64.9,5,64.7,4.5,64.7,4c0-0.7,0.3-1.3,0.9-1.7c0.7-0.5,1.5-0.7,2.4-0.7
			c0.5,0,1.1,0.1,1.6,0.2C70,2,70.4,2.2,70.8,2.5l-0.5,0.9c-0.7-0.5-1.5-0.7-2.4-0.7c-0.6,0-1.1,0.1-1.6,0.4c-0.3,0.2-0.5,0.6-0.5,1
			c0,0.3,0.1,0.6,0.3,0.7c0.2,0.2,0.5,0.3,0.8,0.4c0.4,0.1,0.8,0.2,1.2,0.3c0.5,0.1,1.1,0.2,1.6,0.4c0.4,0.1,0.7,0.3,1,0.6
			c0.3,0.3,0.4,0.8,0.4,1.2c0,0.7-0.3,1.3-0.9,1.7c-0.7,0.5-1.6,0.7-2.5,0.6C67.1,10,66.5,9.9,65.9,9.7z"/>
	</g>
	<g transform="translate(187.982 103.346)">
		<path class="st0" d="M0,0l11,5.7L0,13.3l2.7-6L0,0z"/>
		
			<linearGradient id="SVGID_1_" gradientUnits="userSpaceOnUse" x1="-324.5673" y1="337.1219" x2="-323.5173" y2="337.8269" gradientTransform="matrix(10.994 0 0 -9.455 3567.1838 3198.8665)">
			<stop  offset="0" style="stop-color:#BABABA"/>
			<stop  offset="1" style="stop-color:#FFFFFF"/>
		</linearGradient>
		<path class="st1" d="M11,5.7L0,13.3l7.5-9.5L11,5.7z"/>
		
			<linearGradient id="SVGID_00000043453532050923926100000012274973401840922252_" gradientUnits="userSpaceOnUse" x1="-312.9785" y1="321.8955" x2="-313.4494" y2="323.0096" gradientTransform="matrix(7.475 0 0 -6.774 2345.3669 2186.9773)">
			<stop  offset="0" style="stop-color:#BABABA"/>
			<stop  offset="1" style="stop-color:#FFFFFF"/>
		</linearGradient>
		<path style="fill:url(#SVGID_00000043453532050923926100000012274973401840922252_);" d="M5.2,6.8L0,0l7.5,3.9L5.2,6.8z"/>
		
			<linearGradient id="SVGID_00000039099626799339201350000003008223763874207616_" gradientUnits="userSpaceOnUse" x1="-298.8032" y1="332.5438" x2="-297.8032" y2="332.5438" gradientTransform="matrix(5.165 0 0 -8.382 1543.3167 2796.4978)">
			<stop  offset="0" style="stop-color:#FFFFFF"/>
			<stop  offset="1" style="stop-color:#A3A3A3"/>
		</linearGradient>
		<path style="fill:url(#SVGID_00000039099626799339201350000003008223763874207616_);" d="M5.2,6.8L0,13.3l3.8-8.4L5.2,6.8z"/>
	</g>
</g>
</svg>
